<svg width="17" height="17" viewBox="0 0 17 17" fill="none" xmlns="http://www.w3.org/2000/svg">
<g clip-path="url(#clip0_13048_29)">
<path d="M12.5281 15.9905C12.1543 15.9905 11.6746 15.8706 11.0751 15.5179L8.96607 14.2695C8.7474 14.1425 8.32419 14.1425 8.11258 14.2695L5.99651 15.5179C4.74803 16.2586 4.01446 15.9623 3.68294 15.7225C3.35848 15.4827 2.85062 14.869 3.18214 13.4583L3.68294 11.2928C3.73937 11.0671 3.62651 10.6792 3.45723 10.5099L1.70794 8.76062C0.833297 7.88597 0.903833 7.1383 1.02374 6.77151C1.14365 6.40472 1.52455 5.7558 2.73776 5.55124L4.98785 5.1774C5.19946 5.14213 5.50276 4.91642 5.59446 4.72597L6.84294 2.23606C7.40723 1.10044 8.14785 0.931152 8.5358 0.931152C8.92374 0.931152 9.66437 1.10044 10.2287 2.23606L11.4701 4.71892C11.5688 4.90937 11.8721 5.13508 12.0837 5.17035L14.3338 5.54419C15.5541 5.74874 15.935 6.39767 16.0479 6.76446C16.1607 7.13124 16.2312 7.87892 15.3637 8.75356L13.6144 10.5099C13.4451 10.6792 13.3393 11.0601 13.3887 11.2928L13.8895 13.4583C14.2139 14.869 13.7131 15.4827 13.3887 15.7225C13.2123 15.8495 12.9302 15.9905 12.5281 15.9905ZM8.5358 13.1127C8.88142 13.1127 9.22705 13.1973 9.50214 13.3595L11.6112 14.608C12.2248 14.9748 12.6128 14.9748 12.7609 14.869C12.909 14.7632 13.0148 14.3894 12.8596 13.6981L12.3588 11.5327C12.2248 10.9472 12.4435 10.1925 12.8667 9.76223L14.616 8.01294C14.9616 7.66731 15.1168 7.32874 15.0462 7.09597C14.9687 6.86321 14.6442 6.67276 14.1645 6.59517L11.9145 6.22133C11.3713 6.12963 10.7788 5.69231 10.532 5.19856L9.29053 2.71571C9.06482 2.26428 8.78267 1.99624 8.5358 1.99624C8.28892 1.99624 8.00678 2.26428 7.78812 2.71571L6.53964 5.19856C6.29276 5.69231 5.70026 6.12963 5.15714 6.22133L2.9141 6.59517C2.43446 6.67276 2.10999 6.86321 2.0324 7.09597C1.95482 7.32874 2.11705 7.67437 2.46267 8.01294L4.21196 9.76223C4.63517 10.1854 4.85383 10.9472 4.71982 11.5327L4.21901 13.6981C4.05678 14.3964 4.16964 14.7632 4.31776 14.869C4.46589 14.9748 4.84678 14.9678 5.46749 14.608L7.57651 13.3595C7.84455 13.1973 8.19017 13.1127 8.5358 13.1127Z" fill="white" fill-opacity="0.5"/>
</g>
<defs>
<clipPath id="clip0_13048_29">
<rect width="16.9286" height="16.9286" fill="white" transform="translate(0.0712891)"/>
</clipPath>
</defs>
</svg>
