<svg width="17" height="17" viewBox="0 0 17 17" fill="none" xmlns="http://www.w3.org/2000/svg">
<path d="M4.04885 11.2856C4.12644 10.94 3.98536 10.4463 3.73849 10.1994L2.02447 8.48538C1.4884 7.94931 1.27679 7.37797 1.43197 6.88422C1.5942 6.39047 2.09501 6.05189 2.84269 5.92493L5.0434 5.55815C5.36081 5.50172 5.74876 5.21957 5.89688 4.93038L7.1101 2.49689C7.46278 1.79859 7.94242 1.41064 8.46438 1.41064C8.98635 1.41064 9.46599 1.79859 9.81867 2.49689L11.0319 4.93038C11.1236 5.11377 11.314 5.29011 11.5186 5.41002L3.92188 13.0067C3.82313 13.1055 3.65385 13.0138 3.68206 12.8727L4.04885 11.2856ZM13.1903 10.2008C12.9363 10.4547 12.7953 10.9414 12.8799 11.2871L13.3666 13.4102C13.5712 14.2919 13.4442 14.9549 13.0069 15.2723C12.8211 15.4022 12.5986 15.4689 12.3721 15.4628C12.0123 15.4628 11.5891 15.3288 11.1236 15.0537L9.05688 13.8263C8.73242 13.6359 8.19635 13.6359 7.87188 13.8263L5.80519 15.0537C5.02224 15.5121 4.35215 15.5897 3.92188 15.2723C3.75965 15.1524 3.63974 14.9902 3.56215 14.7786L12.1393 6.20143C12.4638 5.87697 12.9222 5.72884 13.3666 5.80643L14.079 5.92634C14.8267 6.05331 15.3275 6.39188 15.4897 6.88563C15.6449 7.37938 15.4333 7.95072 14.8972 8.48679L13.1903 10.2008Z" fill="#FFE600"/>
</svg>
