<svg width="365" height="620" viewBox="0 0 365 620" fill="none" xmlns="http://www.w3.org/2000/svg">
<g clip-path="url(#clip0_15_108)">
<path d="M-602.303 619.339L364.395 56.4805L364.393 54.1583L-606.3 619.343L-602.303 619.339Z" fill="#FF3C00" fill-opacity="0.81"/>
<path d="M-521.542 619.266L364.437 103.405L364.435 101.082L-525.54 619.27L-521.542 619.266Z" fill="#FF3C00" fill-opacity="0.81"/>
<path d="M-440.783 619.193L364.478 150.329L364.476 148.006L-444.78 619.196L-440.783 619.193Z" fill="#FF3C00" fill-opacity="0.81"/>
<path d="M-360.026 619.12L364.52 197.253L364.518 194.931L-364.024 619.123L-360.026 619.12Z" fill="#FF3C00" fill-opacity="0.81"/>
<path d="M-279.266 619.046L364.561 244.177L364.559 241.855L-283.264 619.05L-279.266 619.046Z" fill="#FF3C00" fill-opacity="0.81"/>
<path d="M-198.506 618.973L364.603 291.101L364.601 288.779L-202.504 618.977L-198.506 618.973Z" fill="#FF3C00" fill-opacity="0.81"/>
<path d="M-117.75 618.9L364.644 338.025L364.642 335.703L-121.748 618.904L-117.75 618.9Z" fill="#FF3C00" fill-opacity="0.81"/>
<path d="M-36.9903 618.827L364.685 384.954L364.683 382.627L-40.9878 618.83L-36.9903 618.827Z" fill="#FF3C00" fill-opacity="0.81"/>
<path d="M43.7696 618.754L364.727 431.878L364.725 429.556L39.7721 618.757L43.7696 618.754Z" fill="#FF3C00" fill-opacity="0.81"/>
<path d="M124.53 618.68L364.768 478.802L364.766 476.48L120.532 618.684L124.53 618.68Z" fill="#FF3C00" fill-opacity="0.81"/>
<path d="M205.286 618.607L364.81 525.726L364.808 523.404L201.288 618.611L205.286 618.607Z" fill="#FF3C00" fill-opacity="0.81"/>
<path d="M286.046 618.534L364.851 572.65L364.849 570.328L282.048 618.538L286.046 618.534Z" fill="#FF3C00" fill-opacity="0.81"/>
<path d="M364.892 618.462L364.891 617.252L362.808 618.464L364.892 618.462Z" fill="#FF3C00" fill-opacity="0.81"/>
<path d="M-683.063 619.412L364.354 9.55628L364.352 7.23402L-687.056 619.416L-683.063 619.412Z" fill="#FF3C00" fill-opacity="0.81"/>
<path d="M-763.819 619.486L364.313 -37.3679L364.311 -39.6902L-767.816 619.489L-763.819 619.486Z" fill="#FF3C00" fill-opacity="0.81"/>
<path d="M-844.579 619.559L364.271 -84.2919L364.269 -86.6142L-848.576 619.562L-844.579 619.559Z" fill="#FF3C00" fill-opacity="0.81"/>
<path d="M-925.338 619.632L364.23 -131.216L364.228 -133.543L-929.336 619.636L-925.338 619.632Z" fill="#FF3C00" fill-opacity="0.81"/>
<path d="M-1006.1 619.705L364.188 -178.145L364.186 -180.467L-1010.1 619.709L-1006.1 619.705Z" fill="#FF3C00" fill-opacity="0.81"/>
<path d="M-1086.85 619.778L364.147 -225.069L364.145 -227.391L-1090.85 619.782L-1086.85 619.778Z" fill="#FF3C00" fill-opacity="0.81"/>
<path d="M-1167.61 619.852L364.105 -271.993L364.103 -274.315L-1171.61 619.855L-1167.61 619.852Z" fill="#FF3C00" fill-opacity="0.81"/>
<path d="M-1248.37 619.925L364.064 -318.917L364.062 -321.239L-1252.37 619.929L-1248.37 619.925Z" fill="#FF3C00" fill-opacity="0.81"/>
<path d="M364.022 -367.004L362.023 -367.002L-1331.13 618.841L-1331.13 620L-1329.13 619.998L364.023 -365.841L364.022 -367.004Z" fill="#FF3C00" fill-opacity="0.81"/>
<path d="M281.266 -366.929L-1331.17 571.912L-1331.17 574.235L285.26 -366.933L281.266 -366.929Z" fill="#FF3C00" fill-opacity="0.81"/>
<path d="M200.507 -366.856L-1331.21 524.988L-1331.21 527.311L204.504 -366.86L200.507 -366.856Z" fill="#FF3C00" fill-opacity="0.81"/>
<path d="M119.746 -366.783L-1331.26 478.064L-1331.25 480.387L123.744 -366.786L119.746 -366.783Z" fill="#FF3C00" fill-opacity="0.81"/>
<path d="M38.9865 -366.71L-1331.3 431.14L-1331.29 433.462L42.9841 -366.713L38.9865 -366.71Z" fill="#FF3C00" fill-opacity="0.81"/>
<path d="M363.478 618.263L364.892 618.261L364.022 -366.893L362.608 -366.892L363.478 618.263Z" fill="#FF3C00" fill-opacity="0.81"/>
<path d="M306.942 618.314L309.769 618.311L308.899 -366.843L306.072 -366.841L306.942 618.314Z" fill="#FF3C00" fill-opacity="0.81"/>
<path d="M250.41 618.365L253.237 618.363L252.367 -366.792L249.541 -366.789L250.41 618.365Z" fill="#FF3C00" fill-opacity="0.81"/>
<path d="M193.875 618.416L196.702 618.414L195.832 -366.741L193.005 -366.738L193.875 618.416Z" fill="#FF3C00" fill-opacity="0.81"/>
<path d="M137.343 618.468L140.17 618.465L139.3 -366.689L136.473 -366.687L137.343 618.468Z" fill="#FF3C00" fill-opacity="0.81"/>
<path d="M80.8073 618.519L83.6343 618.516L82.7645 -366.638L79.9375 -366.636L80.8073 618.519Z" fill="#FF3C00" fill-opacity="0.81"/>
<path d="M24.2717 618.57L27.0986 618.568L26.2288 -366.587L23.4019 -366.584L24.2717 618.57Z" fill="#FF3C00" fill-opacity="0.81"/>
<path d="M335.212 618.288L338.039 618.286L337.169 -366.869L334.342 -366.866L335.212 618.288Z" fill="#FF3C00" fill-opacity="0.81"/>
<path d="M278.676 618.339L281.503 618.337L280.634 -366.818L277.807 -366.815L278.676 618.339Z" fill="#FF3C00" fill-opacity="0.81"/>
<path d="M222.141 618.391L224.968 618.388L224.098 -366.766L221.271 -366.764L222.141 618.391Z" fill="#FF3C00" fill-opacity="0.81"/>
<path d="M165.609 618.442L168.436 618.439L167.566 -366.715L164.739 -366.712L165.609 618.442Z" fill="#FF3C00" fill-opacity="0.81"/>
<path d="M109.073 618.493L111.9 618.491L111.03 -366.664L108.203 -366.661L109.073 618.493Z" fill="#FF3C00" fill-opacity="0.81"/>
<path d="M52.5412 618.545L55.3682 618.542L54.4983 -366.613L51.6714 -366.61L52.5412 618.545Z" fill="#FF3C00" fill-opacity="0.81"/>
<rect width="365" height="652.768" transform="matrix(1 -1.90109e-05 -1.89117e-05 1 -0.101074 -38.9861)" fill="url(#paint0_linear_15_108)"/>
<rect width="368" height="730.361" transform="matrix(1 7.9353e-05 7.10637e-05 1 -0.165527 -111.885)" fill="url(#paint1_linear_15_108)" fill-opacity="0.94"/>
</g>
<defs>
<linearGradient id="paint0_linear_15_108" x1="-2.39657e-06" y1="353.182" x2="304.239" y2="646.641" gradientUnits="userSpaceOnUse">
<stop stop-color="#0A0F13" stop-opacity="0"/>
<stop offset="0.469594" stop-color="#0A0F13"/>
</linearGradient>
<linearGradient id="paint1_linear_15_108" x1="184" y1="-7.92639e-10" x2="184.114" y2="723.871" gradientUnits="userSpaceOnUse">
<stop stop-color="#07101D"/>
<stop offset="1" stop-color="#07101D"/>
</linearGradient>
<clipPath id="clip0_15_108">
<rect width="1696.02" height="985.463" fill="white" transform="matrix(-1 0.000906558 -0.000882921 -1 364.892 618.462)"/>
</clipPath>
</defs>
</svg>
