<svg width="38" height="34" viewBox="0 0 38 34" fill="none" xmlns="http://www.w3.org/2000/svg">
<path d="M36.94 24.1H34.08C30.28 24.1 27.08 21.24 26.76 17.6C26.58 15.52 27.34 13.44 28.86 11.96C30.14 10.64 31.92 9.9 33.84 9.9H36.94C37.52 9.9 38 9.42 37.94 8.84C37.5 3.98 34.28 0.66 29.5 0.0999999C29.02 0.0199999 28.52 0 28 0H10C9.44 0 8.9 0.0399999 8.38 0.12C3.28 0.76 0 4.56 0 10V24C0 29.52 4.48 34 10 34H28C33.6 34 37.46 30.5 37.94 25.16C37.9513 25.023 37.9336 24.8852 37.8881 24.7556C37.8427 24.6259 37.7704 24.5072 37.6761 24.4072C37.5818 24.3073 37.4676 24.2283 37.3407 24.1753C37.2139 24.1224 37.0774 24.0967 36.94 24.1ZM22 12.5H10C9.18 12.5 8.5 11.82 8.5 11C8.5 10.18 9.18 9.5 10 9.5H22C22.82 9.5 23.5 10.18 23.5 11C23.5 11.82 22.82 12.5 22 12.5Z" fill="white"/>
</svg>
